<?xml version="1.0" encoding="UTF-8"?>
<svg id="Layer_1" data-name="Layer 1" xmlns="http://www.w3.org/2000/svg" viewBox="0 0 120 60">
  <defs>
    <style>
      .cls-1 {
        fill: #ef383a;
      }

      .cls-1, .cls-2, .cls-3 {
        stroke-width: 0px;
      }

      .cls-1, .cls-3 {
        fill-rule: evenodd;
      }

      .cls-2, .cls-3 {
        fill: #fff;
      }
    </style>
  </defs>
  <rect class="cls-2" width="120" height="60"/>
  <g>
    <path class="cls-1" d="m60,1c16.02,0,29,12.98,29,29s-12.98,29-29,29-29-12.98-29-29S43.98,1,60,1h0Z"/>
    <path class="cls-3" d="m46.17,20.08c.22-3.09,6.23-3.7,6.95,0v11.56c0,14.81-23.6,8.28-14.03.68,2.24,3.11,6.54,2.9,7-.17l.08-12.08h0Zm26.76,2.33c5.1,0,9.24,4.03,9.24,9s-4.13,9.01-9.24,9.01-9.24-4.03-9.24-9.01,4.14-9,9.24-9h0Zm0,5.18c2,0,3.62,1.72,3.62,3.83s-1.62,3.83-3.62,3.83-3.62-1.71-3.62-3.83,1.62-3.83,3.62-3.83h0Zm-15.05-12.7h1.3c1.5,0,2.74,1.23,2.74,2.74v.67c0,1.5-1.23,2.74-2.74,2.74h-1.3c-1.51,0-2.74-1.23-2.74-2.74v-.67c0-1.5,1.23-2.74,2.74-2.74h0Zm.05,7.93h1.21c1.53,0,2.79,1.25,2.79,2.78v11.66c0,1.53-1.25,2.79-2.79,2.79h-1.21c-1.53,0-2.79-1.26-2.79-2.79v-11.66c0-1.53,1.25-2.78,2.79-2.78h0Z"/>
  </g>
</svg>