<?xml version="1.0" encoding="UTF-8"?>
<svg id="Layer_1" data-name="Layer 1" xmlns="http://www.w3.org/2000/svg" viewBox="0 0 120 60">
  <defs>
    <style>
      .cls-1 {
        fill: #f15822;
      }

      .cls-1, .cls-2, .cls-3, .cls-4, .cls-5, .cls-6 {
        stroke-width: 0px;
      }

      .cls-2 {
        fill: #fff;
      }

      .cls-3 {
        fill: #231f20;
      }

      .cls-4 {
        fill: #9e252f;
      }

      .cls-5 {
        fill: #da4298;
      }

      .cls-6 {
        fill: #f79135;
      }
    </style>
  </defs>
  <rect class="cls-2" width="120" height="60"/>
  <g>
    <path class="cls-3" d="m110.71,26.25c2.09-.71,4.42-1.16,6.59-.47,1.24.42,1.91,1.74,1.9,3,.03,2.58.05,5.16-.04,7.73-.75,0-1.49,0-2.22-.01-.09-.41-.17-.81-.26-1.22-1.39,1.1-3.23,1.88-5.01,1.23-2.01-.8-2.26-3.82-.75-5.22,1.53-1.41,3.73-1.43,5.65-1.86-.12-.65-.22-1.49-.99-1.67-1.54-.46-3.1.24-4.58.65-.12-.71-.21-1.43-.29-2.16m2.46,5.98c-.72.58-.76,1.98.18,2.34,1.14.43,2.24-.34,3.13-.96,0-.84,0-1.67-.01-2.51-1.13.2-2.39.33-3.3,1.13"/>
    <path class="cls-3" d="m52.67,21.09c1.24-.08,2.5-.08,3.76-.05,1.48,3.76,2.43,7.72,4.03,11.44,1.32-3.79,2.54-7.62,3.83-11.41,1.24-.04,2.49-.04,3.73,0,.37,5.16.89,10.31,1.11,15.47h-2.88c-.34-3.68-.5-7.38-.86-11.06-1.48,3.61-2.53,7.41-3.87,11.07-.9.04-1.81.03-2.71-.01-1.3-3.66-2.34-7.43-3.89-11-.31,3.66-.46,7.35-.8,11.02-.86,0-1.73,0-2.59-.01.25-5.17.79-10.3,1.14-15.44"/>
    <path class="cls-3" d="m95.42,22.26c.86-.18,1.75-.3,2.63-.38.03,1.24.03,2.49.03,3.74.72.01,1.45.05,2.19.07.14.71.26,1.43.37,2.15-.85.04-1.69.08-2.53.09.01,1.88-.13,3.78.07,5.67.27.92,1.47.65,2.19.82.14.72.25,1.45.33,2.19-1.37.14-2.92.33-4.15-.46-.81-.54-1.06-1.54-1.1-2.45-.1-1.91.03-3.82-.05-5.73-.5-.05-1.01-.1-1.5-.16.01-.69.04-1.37.07-2.07.48-.04.97-.09,1.47-.13-.03-1.13-.01-2.24.01-3.35"/>
    <path class="cls-3" d="m70.77,25.91c.93-.18,1.87-.29,2.81-.34.85,2.49,1.6,5.01,2.47,7.48.89-2.41,1.58-4.89,2.37-7.34.9-.05,1.79-.08,2.7-.07-1.01,3.3-2.32,6.49-3.43,9.76-.59,1.5-.96,3.21-2.19,4.34-1.01.92-2.46.96-3.73.73-.12-.72-.24-1.44-.35-2.15.63-.01,1.26.03,1.87-.08.84-.29,1.57-1.3,1.19-2.19-1.22-3.4-2.55-6.75-3.72-10.17"/>
    <path class="cls-3" d="m82.87,25.66c.76,0,1.52.01,2.26.03.1.47.2.94.3,1.41,1.16-.96,2.55-1.88,4.15-1.62,1.39.05,2.49,1.31,2.51,2.66.07,2.79.03,5.59.01,8.37-.86.01-1.73.03-2.58.04-.25-2.54.05-5.09-.13-7.62-.12-1.05-1.41-1.31-2.22-.89-.69.34-1.62.82-1.57,1.73-.05,2.25.03,4.5-.01,6.75-.92.01-1.82.01-2.73-.01.01-3.62,0-7.24.01-10.85"/>
    <path class="cls-3" d="m102.71,25.66c.77,0,1.54,0,2.32.01.09.63.2,1.26.3,1.9.96-.99,2-2.03,3.47-2.15.24.86.37,1.75.39,2.64-1.44.33-3.07.93-3.72,2.36-.13,2.03.03,4.07-.05,6.1-.9.01-1.81.01-2.71-.01,0-3.62,0-7.24,0-10.85"/>
    <path class="cls-2" d="m10.5,16.85c.92-1.1,1.91-2.28,3.32-2.72,1.58-.42,2.93.82,3.93,1.88,2.6,2.98,4.5,6.5,6.27,10.04.96-2.15,2.15-4.19,3.38-6.18,1.18-1.81,2.39-3.64,4.1-5.01.79-.6,1.87-1.18,2.85-.67,1.39.73,2.43,1.95,3.41,3.14,2.08,2.68,3.72,5.68,5.19,8.73,1.84,3.93,3.44,8.02,4.11,12.33.2,1.99.38,4.23-.82,5.97-.93,1.36-2.7,1.83-4.27,1.56-1.36-.48-2.55-1.37-3.44-2.5-2.12-2.62-3.38-5.78-4.54-8.91-.17-.55-.38-1.09-.56-1.62-.12.55-.27,1.1-.46,1.64-1.19,3.17-2.46,6.4-4.64,9.03-.88,1.07-2.03,1.9-3.34,2.37-1.88.39-3.7-.59-4.92-1.98-2.38-2.59-3.7-5.94-4.92-9.2-.24-.67-.47-1.33-.64-2.03-.2.69-.43,1.39-.68,2.05-1.1,3-2.36,6.02-4.34,8.54-1.09,1.3-2.5,2.56-4.27,2.66-1.64.14-3.22-.92-3.85-2.41-.89-2.07-.63-4.4-.24-6.56.85-4.12,2.42-8.06,4.28-11.82,1.43-2.92,3.05-5.77,5.09-8.33m.93.92c-2.01,2.56-3.62,5.44-5.06,8.36-1.79,3.78-3.41,7.72-4.11,11.87-.25,1.15-.25,2.34-.13,3.51.14,1.1.58,2.28,1.58,2.84.97.56,2.21.34,3.09-.29,1.57-1.1,2.62-2.77,3.52-4.44,1.94-3.7,3.21-7.72,4.16-11.76,1.02,4.15,2.3,8.28,4.34,12.06.81,1.4,1.66,2.85,2.98,3.82.67.6,1.54,1.02,2.46.92,1.02-.1,1.87-.76,2.59-1.45,1.22-1.26,2.11-2.8,2.89-4.34,1.67-3.43,2.83-7.09,3.73-10.78,1.13,4.47,2.53,8.96,4.93,12.94.9,1.39,1.96,2.83,3.55,3.48,1.11.46,2.53.05,3.17-.98.77-1.24.84-2.79.72-4.2-.16-2.29-.82-4.51-1.56-6.69-1.47-4.19-3.39-8.22-5.73-11.97-1.09-1.67-2.21-3.36-3.73-4.7-.54-.47-1.33-.93-2.01-.46-1.31.8-2.21,2.07-3.13,3.27-2.22,3.17-4.06,6.62-5.56,10.18-.04.05-.14.16-.18.21-.13-.41-.26-.8-.43-1.19-1.54-3.34-3.26-6.62-5.44-9.58-.75-.98-1.52-1.98-2.53-2.7-.43-.3-1.01-.58-1.52-.31-1.09.5-1.84,1.48-2.59,2.38"/>
    <path class="cls-4" d="m11.43,17.77c.75-.9,1.52-1.87,2.6-2.37.51-.26,1.09,0,1.52.31,1.01.72,1.78,1.73,2.53,2.7,2.17,2.97,3.9,6.24,5.44,9.58.18.38.31.79.43,1.19-2.01-3.41-3.85-6.96-6.36-10.05-.73-.86-1.5-1.78-2.56-2.24-.6-.26-1.22.08-1.71.41-1.81,1.52-3.14,3.49-4.4,5.46-2.96,4.71-5.18,9.88-6.65,15.24.69-4.15,2.3-8.09,4.11-11.87,1.43-2.92,3.04-5.8,5.05-8.36"/>
    <path class="cls-4" d="m32.81,15.49c.68-.47,1.48-.01,2.01.46,1.52,1.32,2.64,3.01,3.73,4.7,2.34,3.77,4.28,7.79,5.73,11.97.73,2.17,1.4,4.38,1.56,6.69-.25-1.6-.67-3.17-1.2-4.68-1.39-4.17-3.31-8.18-5.64-11.91-1.02-1.6-2.11-3.18-3.41-4.54-.52-.52-1.09-1.07-1.81-1.31-.56-.17-1.07.22-1.53.5-1.22.96-2.16,2.19-3.06,3.43-1.6,2.26-3.02,4.64-4.3,7.09-.21.39-.47.76-.76,1.09,1.5-3.57,3.34-7.01,5.56-10.18.92-1.22,1.83-2.5,3.13-3.3"/>
    <path class="cls-6" d="m13.31,17.3c.5-.33,1.11-.67,1.71-.41,1.06.46,1.83,1.37,2.56,2.24,2.51,3.09,4.34,6.63,6.35,10.05-1.26,3.57-2.75,7.16-2.84,10.99-.07,1.23.26,2.43.72,3.57-1.32-.97-2.19-2.42-2.98-3.82-2.03-3.78-3.32-7.9-4.34-12.06-.73-3.45-1.41-6.99-1.18-10.56"/>
    <path class="cls-5" d="m32.26,17.35c.46-.27.97-.67,1.53-.5.72.24,1.28.79,1.81,1.31,1.31,1.37,2.39,2.94,3.41,4.54,2.33,3.73,4.25,7.73,5.64,11.91.55,1.52.96,3.09,1.2,4.68.12,1.41.05,2.96-.72,4.2-.64,1.05-2.04,1.44-3.17.98-1.58-.64-2.64-2.09-3.55-3.48-2.41-3.96-3.81-8.45-4.93-12.94-.76-3.49-1.47-7.08-1.23-10.7"/>
    <path class="cls-5" d="m8.92,22.75c1.26-1.96,2.59-3.94,4.4-5.46-.24,3.56.44,7.1,1.19,10.56-.96,4.06-2.24,8.06-4.16,11.76-.9,1.66-1.95,3.34-3.52,4.44-.88.63-2.12.85-3.09.29-1.01-.56-1.44-1.75-1.58-2.84-.13-1.16-.12-2.36.13-3.51,1.44-5.36,3.68-10.53,6.63-15.24"/>
    <path class="cls-1" d="m29.2,20.78c.9-1.24,1.84-2.47,3.06-3.43-.24,3.61.47,7.21,1.24,10.72-.9,3.7-2.07,7.35-3.73,10.78-.79,1.56-1.67,3.09-2.89,4.34-.71.69-1.57,1.35-2.59,1.45-.92.1-1.79-.31-2.46-.92-.46-1.14-.79-2.34-.72-3.57.09-3.83,1.58-7.43,2.84-10.99.04-.05.14-.16.18-.21.29-.34.55-.69.76-1.09,1.3-2.45,2.71-4.83,4.3-7.09"/>
  </g>
</svg>