<?xml version="1.0" encoding="UTF-8"?>
<svg id="Layer_1" data-name="Layer 1" xmlns="http://www.w3.org/2000/svg" viewBox="0 0 120 60">
  <defs>
    <style>
      .cls-1 {
        fill: #010101;
      }

      .cls-1, .cls-2, .cls-3 {
        stroke-width: 0px;
      }

      .cls-2 {
        fill: #fff;
      }

      .cls-3 {
        fill: #f7a51f;
      }
    </style>
  </defs>
  <rect class="cls-2" width="120" height="60"/>
  <g>
    <path class="cls-1" d="m66.01,16.71v-2.56c0-.39.3-.65.65-.65h11.5c.37,0,.66.27.66.65v2.2c0,.36-.32.85-.87,1.61l-5.96,8.49c2.21-.05,4.55.28,6.56,1.41.45.26.58.63.61,1v2.74c0,.38-.41.82-.84.59-3.54-1.85-8.24-2.06-12.15.02-.4.21-.82-.21-.82-.59v-2.6c0-.41,0-1.13.43-1.76l6.9-9.88h-6.01c-.37,0-.66-.26-.67-.65Zm-41.93,16h-3.5c-.33-.02-.6-.27-.63-.59V14.2c0-.36.3-.65.68-.65h3.26c.34.02.61.27.64.6v2.34h.06c.85-2.26,2.45-3.32,4.6-3.32s3.56,1.06,4.54,3.32c.85-2.26,2.77-3.32,4.83-3.32,1.47,0,3.07.6,4.05,1.96,1.11,1.5.88,3.7.88,5.62v11.31c0,.36-.31.65-.68.65h-3.49c-.35-.02-.63-.3-.63-.64v-9.51c0-.75.06-2.64-.1-3.36-.26-1.21-1.05-1.55-2.06-1.55-.85,0-1.73.57-2.09,1.47-.36.91-.33,2.41-.33,3.43v9.5c0,.36-.3.65-.67.65h-3.49c-.35-.02-.63-.3-.63-.64v-9.51c0-2,.32-4.94-2.16-4.94s-2.42,2.87-2.42,4.94v9.5c0,.36-.3.65-.67.65h0ZM88.72,13.17c5.19,0,8,4.45,8,10.11s-3.11,9.81-8,9.81-7.87-4.46-7.87-10,2.81-9.92,7.87-9.92Zm.03,3.66c-2.58,0-2.75,3.51-2.75,5.69s-.03,6.86,2.71,6.86,2.83-3.77,2.83-6.07c0-1.51-.06-3.32-.52-4.75-.39-1.25-1.17-1.74-2.28-1.74h0Zm14.7,15.88h-3.49c-.35-.02-.63-.3-.63-.64V14.14c.02-.33.31-.59.67-.59h3.25c.31.01.56.22.62.5v2.74h.07c.98-2.45,2.34-3.62,4.76-3.62,1.57,0,3.11.57,4.09,2.12.91,1.43.91,3.84.91,5.58v11.28c-.04.32-.33.57-.66.57h-3.51c-.32-.02-.58-.26-.62-.57v-9.73c0-1.96.23-4.83-2.19-4.83-.85,0-1.63.57-2.02,1.44-.49,1.09-.55,2.19-.55,3.39v9.65c0,.36-.31.65-.68.65Zm-86.23-3.29c-.64-.88-1.32-1.6-1.32-3.24v-5.44c0-2.3.17-4.42-1.54-6.01-1.34-1.29-3.57-1.74-5.27-1.74-3.33,0-7.04,1.24-7.82,5.35-.08.44.24.67.52.73l3.39.37c.32-.02.55-.33.61-.64.29-1.42,1.48-2.1,2.81-2.1.72,0,1.54.27,1.96.91.49.72.42,1.7.42,2.53v.45c-2.03.23-4.68.38-6.58,1.21-2.19.95-3.73,2.87-3.73,5.71,0,3.63,2.29,5.45,5.23,5.45,2.49,0,3.85-.59,5.77-2.54.64.92.84,1.36,2,2.33.26.14.59.13.83-.08h0c.7-.61,1.97-1.72,2.68-2.31.28-.24.23-.62.01-.93h0Zm-6.88-1.57c-.56.98-1.44,1.58-2.42,1.58-1.34,0-2.13-1.02-2.13-2.53,0-2.97,2.67-3.51,5.2-3.51v.75c0,1.36.03,2.49-.66,3.7Zm52.74,1.57c-.64-.88-1.32-1.6-1.32-3.24v-5.44c0-2.3.16-4.42-1.54-6.01-1.34-1.29-3.56-1.74-5.26-1.74-3.33,0-7.04,1.24-7.82,5.35-.08.44.24.67.52.73l3.39.37c.32-.02.55-.33.61-.64.29-1.42,1.48-2.1,2.81-2.1.72,0,1.54.27,1.96.91.49.72.42,1.7.42,2.53v.45c-2.03.23-4.68.38-6.57,1.21-2.19.95-3.73,2.87-3.73,5.71,0,3.63,2.29,5.45,5.23,5.45,2.49,0,3.85-.59,5.77-2.54.63.92.84,1.36,2,2.33.26.14.59.13.82-.08h0c.7-.61,1.97-1.72,2.69-2.31.28-.24.24-.62,0-.93h0Zm-6.88-1.57c-.55.98-1.44,1.58-2.42,1.58-1.34,0-2.12-1.02-2.12-2.53,0-2.97,2.67-3.51,5.2-3.51v.75c0,1.36.03,2.49-.66,3.7Z"/>
    <g>
      <path class="cls-3" d="m70.68,39.68c-6.67,4.75-15.97,7.32-24.17,7.32-11.49,0-21.72-4.15-29.61-11.26-.73-.66-.26-1.43.65-.91,8.58,4.95,18.86,7.85,29.65,7.85,7.28,0,15.01-1.45,22.35-4.57,1.61-.68,2.27.74,1.12,1.56h0Z"/>
      <path class="cls-3" d="m73.53,36.47c-.84-1.08-5.56-.51-7.67-.26-.64.08-.74-.48-.16-.89,3.76-2.62,9.92-1.86,10.63-.99.72.89-.19,7.06-3.71,10.01-.54.46-1.05.21-.81-.39.79-1.98,2.57-6.41,1.73-7.48h0Z"/>
    </g>
    <path class="cls-1" d="m117.67,29.78c.39,0,.73.14,1.01.42.28.27.42.61.42,1s-.14.73-.42,1c-.28.28-.61.42-1.01.42s-.73-.14-1-.42c-.27-.28-.41-.61-.41-1s.14-.72.42-1c.28-.28.61-.42,1-.42h0Zm1.64,1.41c0-.45-.16-.84-.48-1.15-.32-.32-.71-.48-1.16-.48s-.84.16-1.16.48c-.32.32-.48.7-.48,1.15s.16.84.48,1.16c.32.32.71.48,1.16.48s.84-.16,1.16-.48c.32-.32.48-.71.48-1.16Zm-1.21-.35c0,.13-.06.23-.19.28-.07.03-.17.04-.31.04h-.29v-.64h.27c.18,0,.31.02.39.06.08.04.12.13.12.26Zm-1.1-.55v1.79h.31v-.71h.25c.17,0,.29.02.36.06.12.07.17.2.17.41v.2s.01.02.01.02c0,0,0,.01,0,.02h.29v-.02s-.03-.05-.03-.09c0-.05,0-.09,0-.13v-.13c0-.09-.03-.18-.1-.28-.07-.09-.17-.15-.31-.17.11-.02.2-.05.26-.09.12-.08.18-.19.18-.35,0-.22-.09-.38-.28-.45-.1-.04-.27-.06-.49-.06h-.63s0,0,0,0Z"/>
  </g>
</svg>