<?xml version="1.0" encoding="UTF-8"?>
<svg id="Layer_1" data-name="Layer 1" xmlns="http://www.w3.org/2000/svg" viewBox="0 0 120 60">
  <defs>
    <style>
      .cls-1 {
        fill: #8e51a0;
      }

      .cls-1, .cls-2, .cls-3 {
        stroke-width: 0px;
      }

      .cls-2 {
        fill: #010101;
      }

      .cls-3 {
        fill: #fff;
      }
    </style>
  </defs>
  <rect class="cls-3" width="120" height="60"/>
  <g>
    <polygon class="cls-1" points="69.64 17.97 76.42 20.6 69.64 23.14 69.64 26.74 81.23 22.05 81.23 19.19 69.64 14.5 69.64 17.97"/>
    <path class="cls-2" d="m7.61,31.33c-3.24,0-5.62,1.45-5.81,4.47h3.6v-.06c.06-1,1-1.73,2.02-1.64,1.38,0,2.02.8,2.02,2.15v.64h-1.64c-3.53,0-6.39,1.09-6.39,4.47v.13c0,2.73,2.02,3.95,4.47,3.95h0c1.51.06,2.89-.64,3.73-1.8v1.57h3.66v-9.06c-.1-3.47-2.47-4.82-5.65-4.82Zm-.77,11.44c-1.28,0-1.86-.64-1.86-1.57v-.13c0-1.22.93-1.73,2.79-1.73h1.51v1.28h0c.06,1.41-1.16,2.15-2.44,2.15Z"/>
    <path class="cls-2" d="m21.84,42.61c-1.8,0-2.73-1.22-2.73-3.95v-.42c0-2.67,1.09-3.95,2.73-3.95,1.28,0,2.02.87,2.22,2.15h3.6c-.29-3.53-2.89-5.11-5.91-5.11-3.6,0-6.46,2.44-6.46,7.04v.13c0,4.59,2.73,6.91,6.46,6.91h0c3.66,0,5.75-2.22,6.04-5.24h-3.44c-.26,1.51-1.19,2.44-2.51,2.44Z"/>
    <path class="cls-2" d="m35.87,42.61c-1.8,0-2.73-1.22-2.73-3.95v-.42c0-2.67,1.09-3.95,2.73-3.95,1.28,0,2.02.87,2.22,2.15h3.6c-.29-3.53-2.89-5.11-5.91-5.11-3.6,0-6.46,2.44-6.46,7.04v.13c0,4.59,2.73,6.91,6.46,6.91h0c3.66,0,5.75-2.22,5.98-5.24h-3.37c-.22,1.51-1.22,2.44-2.51,2.44Z"/>
    <path class="cls-2" d="m50.04,42.67c-1.64,0-2.67-.93-2.79-3.37h8.77v-1.57c0-4.47-2.79-6.39-6.17-6.39-3.66,0-6.46,2.51-6.46,7.04v.29c0,4.53,2.67,6.84,6.55,6.84h0c3.53,0,5.69-1.93,6.04-4.53h-3.53c-.19,1.06-1.28,1.86-2.41,1.7Zm-.22-8.77c1.51,0,2.44.87,2.51,2.89h-5.04c.29-2.15,1.38-2.79,2.54-2.89Z"/>
    <path class="cls-2" d="m66.2,31.33c-1.73-.06-3.31.8-4.11,2.31v-2.02h-3.73v13.52h3.73v-8.61c.06-1.22,1.16-2.22,2.38-2.15,1.38,0,2.02.71,2.02,2.31v8.45h3.82v-9.06c0-3.31-1.67-4.75-4.11-4.75Z"/>
    <path class="cls-2" d="m77.35,40.81v-6.39h2.6v-2.79h-2.6v-4.11l-3.73,1.57v2.51h-1.64v2.79h1.57v6.84c0,2.73,1.38,4.11,4.3,4.11.71,0,1.45-.06,2.15-.29v-2.96c-.42.13-.87.22-1.28.22-.87,0-1.38-.48-1.38-1.51Z"/>
    <path class="cls-2" d="m90.36,40.04v.35c-.06,1.22-1.16,2.22-2.38,2.15-1.38,0-1.93-.71-1.93-2.31v-8.64h-3.82v9.12c0,3.15,1.8,4.66,4.24,4.66,1.64.06,3.15-.8,3.95-2.31v2.02h3.82v-13.52h-3.82l-.06,8.48h0Z"/>
    <path class="cls-2" d="m100.7,34.06v-2.51h-3.73v13.52h3.73v-7c0-2.22,1.51-3.02,4.11-3.02v-3.73c-1.86,0-3.53,1.06-4.11,2.73Z"/>
    <path class="cls-2" d="m118.59,37.66c0-4.47-2.79-6.33-6.17-6.33-3.66,0-6.46,2.51-6.46,7.04v.29c0,4.53,2.67,6.84,6.55,6.84h0c3.53,0,5.62-1.93,6.04-4.53h-3.53c-.29,1.16-1.38,1.86-2.51,1.8-1.64,0-2.67-.93-2.79-3.37h8.77v-1.73h.1Zm-8.77-.87h0c.29-2.22,1.38-2.89,2.6-2.89,1.51,0,2.44.87,2.51,2.89h-5.11Z"/>
  </g>
</svg>