<?xml version="1.0" encoding="UTF-8"?>
<svg id="Layer_1" data-name="Layer 1" xmlns="http://www.w3.org/2000/svg" viewBox="0 0 120 60">
  <defs>
    <style>
      .cls-1 {
        fill: #747474;
      }

      .cls-1, .cls-2, .cls-3, .cls-4, .cls-5, .cls-6 {
        stroke-width: 0px;
      }

      .cls-2 {
        fill: #33a0da;
      }

      .cls-3 {
        fill: #fff;
      }

      .cls-4 {
        fill: #7fbb42;
      }

      .cls-5 {
        fill: #fdb813;
      }

      .cls-6 {
        fill: #f05225;
      }
    </style>
  </defs>
  <rect class="cls-3" width="120" height="60"/>
  <g>
    <path class="cls-1" d="m50.14,22.5v15h-2.6v-11.77h-.03l-4.65,11.77h-1.74l-4.76-11.77h-.03v11.77h-2.4v-15h3.75l4.31,11.11h.07l4.55-11.11h3.54Zm2.15,1.15c0-.42.14-.76.45-1.04.31-.28.66-.42,1.08-.42.45,0,.83.14,1.11.42.28.28.45.62.45,1.04s-.14.76-.45,1.04c-.31.28-.66.42-1.11.42s-.8-.14-1.08-.42c-.28-.31-.45-.66-.45-1.04Zm2.81,3.09v10.76h-2.53v-10.76h2.53Zm7.67,8.92c.38,0,.8-.07,1.25-.28.45-.17.87-.42,1.25-.69v2.36c-.42.24-.87.42-1.39.52-.52.1-1.08.17-1.7.17-1.6,0-2.88-.49-3.85-1.49-1.01-1.01-1.49-2.29-1.49-3.82,0-1.74.52-3.16,1.53-4.27,1.01-1.11,2.43-1.67,4.31-1.67.49,0,.97.07,1.42.17.49.1.87.28,1.15.42v2.43c-.38-.28-.8-.52-1.18-.66-.42-.14-.83-.24-1.25-.24-1.01,0-1.81.31-2.43.97-.62.66-.9,1.53-.9,2.64s.31,1.94.9,2.53c.59.59,1.39.9,2.4.9Zm9.69-9.1c.21,0,.38,0,.56.03.17.03.31.07.42.1v2.57c-.14-.1-.31-.21-.59-.28-.28-.07-.56-.14-.94-.14-.62,0-1.15.28-1.56.8-.42.52-.66,1.32-.66,2.43v5.42h-2.53v-10.76h2.53v1.7h.03c.24-.59.59-1.04,1.04-1.39.49-.31,1.04-.49,1.7-.49Zm1.11,5.73c0-1.77.52-3.19,1.49-4.24,1.01-1.04,2.4-1.56,4.17-1.56,1.67,0,2.99.49,3.92,1.49.94,1.01,1.42,2.36,1.42,4.06s-.52,3.12-1.49,4.17c-1.01,1.04-2.36,1.56-4.1,1.56s-2.99-.49-3.96-1.46c-.97-1.01-1.46-2.36-1.46-4.03Zm2.64-.1c0,1.11.24,1.98.76,2.57.52.59,1.25.9,2.19.9s1.63-.28,2.12-.9c.49-.59.73-1.46.73-2.64s-.24-2.01-.73-2.64c-.49-.59-1.22-.9-2.08-.9-.94,0-1.63.31-2.15.94-.59.66-.83,1.53-.83,2.67Zm12.15-2.6c0,.35.1.66.35.87.24.21.73.45,1.53.76,1.01.42,1.74.87,2.12,1.35.42.52.62,1.11.62,1.84,0,1.01-.38,1.81-1.18,2.43-.76.62-1.84.9-3.16.9-.45,0-.94-.07-1.49-.17-.56-.1-1.01-.24-1.39-.42v-2.5c.45.31.97.59,1.49.76.52.17,1.01.28,1.46.28.56,0,1.01-.07,1.25-.24.28-.17.42-.42.42-.8,0-.35-.14-.63-.42-.9-.28-.24-.83-.52-1.6-.83-.94-.38-1.6-.83-1.98-1.32s-.59-1.11-.59-1.87c0-.97.38-1.77,1.15-2.4.76-.63,1.77-.94,2.99-.94.38,0,.8.03,1.25.14.45.1.87.21,1.18.31v2.47c-.35-.21-.73-.42-1.18-.59-.45-.17-.9-.24-1.32-.24-.49,0-.87.1-1.11.28-.24.24-.38.49-.38.83Zm5.69,2.71c0-1.77.52-3.19,1.49-4.24,1.01-1.04,2.4-1.56,4.17-1.56,1.67,0,2.99.49,3.92,1.49.94,1.01,1.42,2.36,1.42,4.06s-.52,3.12-1.49,4.17c-1.01,1.04-2.36,1.56-4.1,1.56s-2.99-.49-3.96-1.46c-.94-1.01-1.46-2.36-1.46-4.03Zm2.64-.1c0,1.11.24,1.98.76,2.57.52.59,1.25.9,2.19.9s1.63-.28,2.12-.9c.49-.59.73-1.46.73-2.64s-.24-2.01-.73-2.64c-.49-.59-1.22-.9-2.08-.9-.94,0-1.63.31-2.15.94-.56.66-.83,1.53-.83,2.67Zm16.81-3.37h-3.79v8.68h-2.57v-8.68h-1.81v-2.08h1.81v-1.49c0-1.11.38-2.05,1.11-2.78.73-.73,1.67-1.08,2.81-1.08.31,0,.59.03.83.03s.45.07.63.14v2.19c-.07-.03-.24-.1-.45-.17-.21-.07-.45-.1-.73-.1-.52,0-.94.17-1.22.49-.28.31-.42.83-.42,1.46v1.28h3.79v-2.43l2.53-.76v3.19h2.57v2.08h-2.57v5.03c0,.66.14,1.11.35,1.39.24.28.63.42,1.15.42.14,0,.31-.03.52-.1.21-.07.38-.14.52-.24v2.08c-.17.1-.42.17-.8.24-.38.07-.73.1-1.11.1-1.08,0-1.87-.28-2.4-.83-.52-.56-.8-1.42-.8-2.57l.04-5.49Z"/>
    <path class="cls-6" d="m13.26,17.5H1.39v11.88h11.88v-11.88Z"/>
    <path class="cls-4" d="m26.39,17.5h-11.88v11.88h11.88v-11.88Z"/>
    <path class="cls-2" d="m13.26,30.62H1.39v11.88h11.88v-11.88Z"/>
    <path class="cls-5" d="m26.39,30.62h-11.88v11.88h11.88v-11.88Z"/>
  </g>
</svg>