<?xml version="1.0" encoding="UTF-8"?>
<svg id="Layer_1" data-name="Layer 1" xmlns="http://www.w3.org/2000/svg" xmlns:xlink="http://www.w3.org/1999/xlink" viewBox="0 0 120 60">
  <defs>
    <style>
      .cls-1 {
        fill: url(#linear-gradient);
      }

      .cls-1, .cls-2, .cls-3 {
        stroke-width: 0px;
      }

      .cls-2 {
        fill: none;
      }

      .cls-3 {
        fill: #fff;
      }

      .cls-4 {
        clip-path: url(#clippath);
      }
    </style>
    <clipPath id="clippath">
      <path class="cls-2" d="m35.86,11.67l-9.9,25.01-4-21.27c-.47-2.37-2.32-3.75-4.38-3.75H1.39l-.22,1.07c3.32.72,7.09,1.89,9.38,3.13,1.4.76,1.8,1.42,2.26,3.23l7.58,29.33h10.05l15.4-36.75h-9.99Zm14.07,0l-7.87,36.75h9.51l7.86-36.75h-9.51Zm54.51,9.93l2.88,13.8h-7.89l5.01-13.8Zm-1.39-9.93c-1.83,0-3.36,1.06-4.05,2.7l-14.27,34.06h9.98l1.98-5.49h12.2l1.15,5.49h8.79l-7.68-36.75h-8.11Zm-41.02,11.48c-.06,5.29,4.72,8.24,8.32,10,3.7,1.8,4.94,2.96,4.93,4.57-.03,2.47-2.95,3.55-5.69,3.6-4.78.07-7.55-1.29-9.76-2.32l-1.72,8.05c2.22,1.02,6.32,1.91,10.57,1.95,9.99,0,16.52-4.93,16.55-12.58.04-9.7-13.41-10.23-13.32-14.57.03-1.32,1.28-2.72,4.03-3.08,1.36-.18,5.12-.31,9.37,1.64l1.67-7.79c-2.29-.83-5.23-1.63-8.9-1.63-9.4,0-16.01,5-16.06,12.15"/>
    </clipPath>
    <linearGradient id="linear-gradient" x1="-1357.74" y1="426.23" x2="-1356.81" y2="426.23" gradientTransform="translate(171816.56 53967.59) scale(126.55 -126.55)" gradientUnits="userSpaceOnUse">
      <stop offset="0" stop-color="#26235c"/>
      <stop offset="1" stop-color="#0a509f"/>
    </linearGradient>
  </defs>
  <rect class="cls-3" width="120" height="60"/>
  <g class="cls-4">
    <rect class="cls-1" x="1.17" y="11" width="117.66" height="38"/>
  </g>
</svg>