<?xml version="1.0" encoding="UTF-8"?>
<svg id="Layer_1" data-name="Layer 1" xmlns="http://www.w3.org/2000/svg" viewBox="0 0 120 60">
  <defs>
    <style>
      .cls-1 {
        fill: #fff;
      }

      .cls-1, .cls-2 {
        stroke-width: 0px;
      }

      .cls-2 {
        fill: #ef3e33;
      }
    </style>
  </defs>
  <rect class="cls-1" width="120" height="60"/>
  <path class="cls-2" d="m37.09,15.5c-2.21,0-6.12,2.52-6.12,8.19h57.45c.78-8.41-5.15-8.19-5.15-8.19h-46.19Zm-6.61,11.18s0,1.74,0,2.66c0,1.8,1.8,3.99,4.54,3.99,1.72,0,13.92.01,13.92.01l-.44,3.42h-18.85l-1,7.75h22.09c1.85,0,6.18-1.5,6.92-5.91,0,0,.86-7.26.88-7.53.11-1.41-.75-4.37-4.58-4.37h-23.47Zm30.05,0h27.56l-.61,3.1s-.61,3.54-4.87,3.54h-13.51l-1.27,11.18h-9.35l2.05-17.82h0Zm29-2.99h28.28c1.27-5.48-1.38-8.19-4.15-8.19-3.27,0-11.26,0-23.08,0l-1.05,8.19h0Zm6.97,20.81h-9.35l2.05-17.82h9.46l-2.16,17.82h0Zm18.82,0h-9.35l2.05-17.82h9.46l-2.16,17.82h0ZM3.96,26.68h25.29l-.83,6.64h-15.55l-.5,3.43h15.61l-.94,7.75H1.86l2.1-17.82h0Zm1.27-11.18h25.29l-1.08,8.19H4.35l.89-8.19h0Z"/>
</svg>